<svg width="80" height="88" viewBox="0 0 80 88" fill="none" xmlns="http://www.w3.org/2000/svg">
<path d="M41.6481 27.8179C42.6894 23.3466 39.9085 18.8776 35.4367 17.8363C30.965 16.7949 26.4959 19.5754 25.4546 24.0468C24.4133 28.5181 27.1943 32.987 31.666 34.0284C36.1377 35.0697 40.6068 32.2892 41.6481 27.8179Z" fill="#FF2D55"/>
<path d="M70.1708 53.0426H38.4889L35.7845 49.3468H79.6569V53.0426H74.0514V87.9681H70.1708V53.0426Z" fill="#333333"/>
<path d="M10.3929 56.6746C9.43717 48.4644 9.97787 43.6114 12.4929 36.1554C14.3537 30.7437 18.9273 29.0299 22.082 29.8168C25.2227 30.5995 26.6109 34.9672 25.5764 38.6357L23.3346 34.7917C22.6741 33.6608 21.4501 32.9586 20.1391 32.9586C19.4876 32.9586 18.8449 33.1323 18.279 33.4627C16.5191 34.4905 15.9222 36.7571 16.9489 38.5178L23.417 49.6034C23.4776 49.708 23.5485 49.8045 23.6184 49.9013C23.509 50.9546 23.4343 52.0124 23.4033 53.0638L35.8342 49.2822H40.6999C44.0592 49.2822 44.8524 51.3316 44.0592 54.9768L39.2543 77.0589C38.7842 79.2213 36.8712 80.6978 34.7454 80.6978C34.4198 80.6978 34.0894 80.6631 33.7586 80.591C31.2647 80.0485 29.6829 77.5878 30.2261 75.0949L33.4714 60.1779L21.8518 62.9254C21.6485 62.9734 21.4453 63.0022 21.2427 63.0226C20.6215 63.1497 19.8797 63.1822 19.0145 63.1929C15.6277 63.2362 11.5493 62.6256 10.3929 56.6746Z" fill="#FF2D55"/>
<path d="M2.25001 80.2299L2.09515 80.4908V82.1477C0.887728 82.535 0.0129278 83.6663 0.0129278 85.0023C0.0129278 86.6581 1.35562 88 3.01134 88C4.66744 88 6.00902 86.6581 6.00902 85.0023C6.00902 83.8134 5.31532 82.7893 4.31264 82.3044L4.3119 81.1727C4.9073 80.5119 7.24121 78.3609 13.8564 78.0409L14.2673 82.1835C13.112 82.5997 12.2845 83.7029 12.2845 85.002C12.2845 86.6577 13.6265 87.9996 15.2822 87.9996C16.9379 87.9996 18.2806 86.6577 18.2806 85.002C18.2806 83.8463 17.6253 82.8447 16.667 82.3439L17.0946 78.0383C20.966 78.222 23.3775 79.0473 24.8215 79.8204C25.6405 80.2595 26.1534 80.6827 26.4532 80.9761C26.5278 81.0493 26.5888 81.1147 26.6383 81.1701V82.2523C25.5773 82.7139 24.8348 83.7709 24.8348 85.002C24.8348 86.6577 26.1767 87.9996 27.8325 87.9996C29.4893 87.9996 30.8309 86.6577 30.8309 85.002C30.8309 83.7058 30.0071 82.6049 28.8551 82.1861V80.4901L28.7002 80.2292C28.5509 79.9206 26.057 76.254 17.3138 75.8227L17.7602 71.3267H26.3268C27.8583 71.3267 29.0983 70.0856 29.0983 68.5552C29.0983 67.0248 27.8583 65.7837 26.3268 65.7837H7.12035L5.53818 41.3414C5.43839 39.8139 4.12009 38.6553 2.59298 38.7543C1.0655 38.8534 -0.0931422 40.1717 0.00590575 41.6995L1.75698 68.7348C1.85086 70.195 3.05939 71.3271 4.52293 71.3271H13.1904L13.6368 75.823C4.89362 76.2543 2.40006 79.9213 2.25001 80.2299Z" fill="#333333"/>
<path d="M70.0666 45.9556H63.4444V30.8028H58.0241V18.2374H55.0675V43.3689H58.0241V32.6507H61.5973L61.5965 45.9556H54.9755V47.434H70.0666V45.9556Z" fill="#333333"/>
<path d="M42.5999 47.434H50.3866V45.9556H43.9518C43.9089 46.0403 43.8657 46.1253 43.8158 46.2073C43.5083 46.7155 43.091 47.1309 42.5999 47.434Z" fill="#333333"/>
<path d="M22.6962 35.1646C21.8728 33.7539 20.0629 33.2775 18.6522 34.1009C17.2419 34.9236 16.7659 36.7338 17.5882 38.1445L24.0559 49.2312C24.5947 50.1556 25.5734 50.6992 26.6075 50.6992C26.8422 50.6992 27.0798 50.6711 27.3156 50.6135L41.3593 47.1634C42.9452 46.7743 43.9146 45.1729 43.5251 43.587C43.1355 42.0011 41.5345 41.0317 39.9486 41.4212L28.05 44.3432L22.6962 35.1646Z" fill="#FF2D55"/>
<path d="M10.8926 14.6048C11.2363 14.6048 11.5264 14.5456 11.7619 14.4285C11.9973 14.3106 12.168 14.1639 12.2737 13.9894C12.3791 13.8142 12.5431 13.4276 12.7667 12.8304C12.9541 12.2686 13.8714 11.1218 15.5198 9.3896C16.1166 8.76204 16.4943 8.35735 16.6518 8.17626C16.9896 8.56912 17.5236 9.23585 18.2543 10.1772C19.1235 11.3125 19.8147 12.0894 20.3273 12.5089C20.8406 12.9283 21.3684 13.1386 21.912 13.1386C22.1837 13.1386 22.4206 13.0403 22.6228 12.8444C22.8249 12.6486 22.9258 12.4357 22.9258 12.2058C22.9258 12.0912 22.7887 11.8577 22.5137 11.5043C22.2395 11.1514 21.8666 10.8299 21.3957 10.5401C20.943 10.2688 20.2685 9.60765 19.3719 8.5573C18.4757 7.50695 18.0274 6.92781 18.0274 6.81878C18.0274 6.60775 18.7606 5.81093 20.2275 4.42833L20.5897 4.07538C21.3015 3.32661 21.9265 2.71421 22.4635 2.23745C23.1036 1.68788 23.4236 1.30758 23.4236 1.09618C23.4236 0.855212 23.2788 0.613506 22.989 0.372169C22.6993 0.130462 22.4398 0.00997871 22.2103 0.00997871C22.0473 0.00997871 21.7498 0.19403 21.3189 0.562134C20.8872 0.930607 19.4913 2.41226 17.1308 5.00783C16.9981 5.17673 16.9256 5.261 16.9135 5.261C15.7788 3.86693 14.8793 2.50318 14.2151 1.16825C13.9738 0.679661 13.7502 0.362929 13.5451 0.218053C13.3403 0.072438 13.1079 0 12.8481 0C12.6126 0 12.3846 0.151159 12.1643 0.452738C11.9441 0.754316 11.8336 1.05959 11.8336 1.36708C11.8336 1.63281 12.2745 2.37087 13.1555 3.58088C14.037 4.79126 14.6712 5.61986 15.0574 6.06632C15.2566 6.30174 15.4074 6.50723 15.5101 6.68204C15.4617 6.74893 15.383 6.83615 15.2747 6.94481L14.2698 7.99516C12.7908 9.48606 11.6905 10.6887 10.9687 11.603C10.2477 12.5177 9.88696 13.2044 9.88696 13.6634C9.88733 14.2906 10.2225 14.6048 10.8926 14.6048Z" fill="#FF2D55"/>
</svg>
