<svg width="93" height="88" viewBox="0 0 93 88" fill="none" xmlns="http://www.w3.org/2000/svg">
<path d="M37.6162 24.2031C38.6583 19.7282 35.8752 15.2557 31.3999 14.2135C26.9246 13.1713 22.4518 15.954 21.4097 20.4289C20.3676 24.9038 23.1508 29.3763 27.6261 30.4185C32.1014 31.4607 36.5741 28.678 37.6162 24.2031Z" fill="#FF2D55"/>
<path d="M30.0726 63.5632C27.2219 64.495 23.8978 64.5615 21.0668 60.2454C17.0684 53.0036 15.7283 48.3039 15.2282 40.4444C14.9001 34.7264 18.4861 31.4049 21.7066 30.937C24.8551 30.4795 27.7482 33.8653 28.2609 37.5771C27.2541 37.1106 26.504 36.6808 26.0091 36.3694C25.7417 36.2022 25.4894 36.0313 25.2786 35.8749C25.2172 35.8294 25.1768 35.7976 25.1706 35.7946C24.5 35.215 23.6419 34.8958 22.756 34.8958C21.6804 34.8958 20.6603 35.3619 19.9568 36.1756C18.6237 37.718 18.7939 40.0586 20.3181 41.3768C20.364 41.4197 23.4828 44.1202 29.9838 46.0865C30.6977 49.0507 31.6268 52.087 32.9572 54.7779L48.8898 59.8992C49.81 60.1951 50.5982 60.757 51.1775 61.5315L62.5202 76.6961C64.0496 78.7412 63.6316 81.6388 61.5877 83.1687C60.7566 83.7897 59.7853 84.0896 58.8221 84.0896C57.4144 84.0896 56.0236 83.449 55.1152 82.2347L44.6565 68.2511L41.7504 67.3168L37.1461 65.8369L30.0726 63.5632Z" fill="#FF2D55"/>
<path d="M19.4894 65.7662H37.2876L41.8918 67.2461C42.096 67.6323 42.2125 68.0721 42.2125 68.5396C42.2125 70.0712 40.9708 71.3137 39.4384 71.3137H30.8646L30.4182 75.8129C39.1684 76.2445 41.6644 79.9145 41.8138 80.2229L41.9691 80.4841V82.1811C43.1217 82.6001 43.9461 83.702 43.9461 84.9992C43.9461 86.6562 42.6031 87.9993 40.9453 87.9993C39.2883 87.9993 37.9452 86.6562 37.9452 84.9992C37.9452 83.7671 38.6883 82.7093 39.7506 82.2473V81.165C39.701 81.1095 39.6396 81.0441 39.5646 80.9701C39.265 80.6768 38.7516 80.2529 37.9323 79.8139C36.4864 79.0401 34.073 78.2141 30.1985 78.0303L29.7709 82.3394C30.7304 82.8406 31.3858 83.8429 31.3858 84.9995C31.3858 86.6566 30.042 87.9996 28.385 87.9996C26.7279 87.9996 25.3849 86.6566 25.3849 84.9995C25.3849 83.6994 26.2131 82.5953 27.3697 82.1789L26.958 78.0329C20.3386 78.3525 18.0025 80.5055 17.4062 81.1676V82.2998C18.4105 82.7851 19.1044 83.81 19.1044 84.9999C19.1044 86.657 17.7617 88 16.1043 88C14.4472 88 13.1035 86.657 13.1035 84.9999C13.1035 83.6624 13.979 82.5302 15.1881 82.1426V80.4848L15.3431 80.2237C15.4932 79.9152 17.9884 76.2453 26.7383 75.8136L26.2918 71.3144H17.6178C16.4864 71.3144 15.4673 70.6261 15.0446 69.5771L4.60586 43.6926C4.03255 42.2716 4.71942 40.6548 6.14049 40.0819C7.56119 39.5089 9.17793 40.1965 9.75087 41.6172L19.4894 65.7662Z" fill="#4F4F4F"/>
<path d="M39.7656 53.0202H83.2252V87.9738H87.109V53.0202H92.7193V49.3215H39.7656V53.0202Z" fill="#4F4F4F"/>
<path d="M83.0713 45.9925H76.4445V30.8279H71.0195V18.252H68.0608V43.4038H71.0195V32.6769H74.5951V45.9925H67.9691V47.4721H83.0713V45.9925Z" fill="#4F4F4F"/>
<path d="M52.0947 47.0134V47.4721H63.3756V45.9925H52.931C52.7154 46.3805 52.4309 46.7253 52.0947 47.0134Z" fill="#4F4F4F"/>
<path d="M25.6186 36.9967C25.2528 36.7678 24.9958 36.585 24.8423 36.4708C24.7653 36.4142 24.7147 36.3742 24.6895 36.3539L24.6891 36.3542C23.4526 35.2875 21.5859 35.4244 20.5184 36.6598C19.4491 37.8963 19.5848 39.7642 20.8213 40.8335C21.2145 41.1967 28.6875 47.3663 44.6089 47.3663C44.6278 47.3663 44.6459 47.3663 44.6644 47.3663C46.3274 47.3663 48.0814 47.2997 49.9274 47.1547C51.5567 47.026 52.774 45.6016 52.6457 43.9723C52.517 42.3429 51.094 41.1264 49.4643 41.2548C47.7685 41.3879 46.1691 41.4482 44.6641 41.4482C37.4496 41.446 32.3708 40.0737 29.1288 38.7588C27.5091 38.1019 26.348 37.4565 25.6186 36.9967Z" fill="#FF2D55"/>
<path d="M1.0057 14.6165C1.35043 14.6165 1.64004 14.5573 1.87565 14.4401C2.11201 14.3221 2.28252 14.1752 2.38794 14.0006C2.49372 13.8253 2.65795 13.4384 2.88209 12.8407C3.06925 12.2785 3.98729 11.1308 5.63658 9.39713C6.23467 8.76908 6.61195 8.36406 6.76952 8.18282C7.10758 8.576 7.64206 9.24326 8.37331 10.1853C9.24363 11.3216 9.9353 12.0991 10.4487 12.5189C10.9617 12.9387 11.4903 13.1492 12.0344 13.1492C12.3059 13.1492 12.5429 13.0508 12.7453 12.8548C12.948 12.6587 13.0489 12.4457 13.0489 12.2156C13.0489 12.1009 12.9113 11.8672 12.6369 11.5136C12.3617 11.1603 11.9889 10.8385 11.518 10.5486C11.0645 10.2771 10.3895 9.61536 9.49219 8.56417C8.59523 7.51297 8.14657 6.93337 8.14657 6.82426C8.14657 6.61306 8.88041 5.8156 10.3488 4.43188L10.7113 4.07865C11.4241 3.32928 12.0492 2.71639 12.587 2.23924C13.2269 1.68924 13.5472 1.30863 13.5472 1.09706C13.5472 0.855899 13.4025 0.613998 13.1126 0.372468C12.8226 0.130567 12.5629 0.00998672 12.3332 0.00998672C12.1701 0.00998672 11.8727 0.194186 11.4407 0.562585C11.0087 0.931354 9.61203 2.4142 7.24999 5.01185C7.1172 5.18089 7.04396 5.26522 7.03213 5.26522C5.89623 3.87004 4.99632 2.50519 4.33202 1.16919C4.09012 0.680207 3.86671 0.363221 3.66106 0.218228C3.4554 0.0724962 3.22275 0 2.96347 0C2.72748 0 2.49964 0.15128 2.27919 0.453101C2.058 0.754922 1.94852 1.06044 1.94852 1.36818C1.94852 1.63412 2.38904 2.37277 3.2712 3.58375C4.15337 4.7951 4.78771 5.62437 5.17386 6.07119C5.37359 6.3068 5.52413 6.51245 5.62696 6.6874C5.57888 6.75435 5.50046 6.84164 5.39135 6.95039L4.38565 8.00158C2.9054 9.49367 1.80464 10.6973 1.08263 11.6123C0.361001 12.5278 0 13.215 0 13.6744C0 14.3021 0.33511 14.6165 1.0057 14.6165Z" fill="#FF2D55"/>
</svg>
