<svg width="84" height="89" viewBox="0 0 84 89" fill="none" xmlns="http://www.w3.org/2000/svg">
<path d="M31.1836 21.7453C32.2218 17.2869 29.4489 12.8309 24.9902 11.7926C20.5314 10.7542 16.0752 13.5267 15.0369 17.9851C13.9987 22.4434 16.7715 26.8994 21.2303 27.9378C25.6891 28.9761 30.1453 26.2037 31.1836 21.7453Z" fill="#34C759"/>
<path d="M73.8669 53.1756H30.7941L31.7887 49.4904H83.3251V53.1756H77.7363V88H73.8669V53.1756Z" fill="#4F4F4F"/>
<path d="M40.5123 55.3095L40.5123 55.3098C41.6854 55.3676 43.1484 55.8439 44.352 56.5892C45.5465 57.3288 46.5523 58.3765 46.6928 59.611L49.3339 82.8281C49.6366 85.4924 47.7222 87.8988 45.0578 88.2016C45.0577 88.2016 45.0576 88.2016 45.0575 88.2016L45.0293 87.9532C44.8524 87.9735 44.6766 87.983 44.5027 87.983C42.1918 87.983 40.7672 85.2067 40.5 82.8563L40.5123 55.3095ZM40.5123 55.3095H40.5H32C31.7154 55.3095 31.5307 55.2504 31.4052 55.1641C31.2812 55.0788 31.1887 54.9489 31.1215 54.7566C31.0529 54.5606 31.015 54.3115 30.9956 54.0062C30.9763 53.7019 30.9762 53.3582 30.9762 52.9747L30.9762 52.9729L30.9132 44.4359L30.9131 44.4211L30.9112 44.4064C30.623 42.1312 30.117 39.786 29.3812 37.1064L29.3808 37.1049C27.8048 31.4963 23.2309 29.4406 19.9092 30.0704C18.2096 30.3921 16.9505 31.696 16.2291 33.3608C15.5084 35.0239 15.3069 37.0799 15.738 38.9886C16.4469 44.1783 16.601 52.9766 16.601 57.9161C16.601 58.2681 16.5996 58.5997 16.5984 58.9117C16.5952 59.6885 16.5925 60.3442 16.6125 60.8928C16.6405 61.6582 16.713 62.2558 16.9107 62.7115C17.1172 63.1876 17.4534 63.4946 17.9587 63.6911C18.4452 63.8803 19.0923 63.9688 19.9327 64.0278C19.9677 64.0315 20.019 64.0328 20.0665 64.0336C20.127 64.0347 20.2051 64.0353 20.2942 64.0355C20.4727 64.0358 20.6991 64.0346 20.9247 64.0331C21.0319 64.0323 21.1379 64.0315 21.2382 64.0308C21.5683 64.0283 21.8363 64.0263 21.8807 64.0285L21.8807 64.0288H21.893H38.2748L40.5123 55.3095Z" fill="#34C759" stroke="#34C759" stroke-width="0.5"/>
<path d="M61.6385 24.9671V12.4384H58.6904V37.4968H61.6385V26.8103H65.2005V45.9726H58.5983V47.4467H73.6461V45.9726H67.0431V24.9671H61.6385Z" fill="#4F4F4F"/>
<path d="M54.0228 47.4467V45.9726H42.7832V47.178C42.8068 47.2665 42.8285 47.3557 42.8458 47.4467H54.0228Z" fill="#4F4F4F"/>
<path d="M4.45284 13.1268C4.79703 14.0031 7.03132 13.196 7.29149 12.5346C9.13332 7.85261 12.0774 3.76949 16.2076 0.855296C16.6863 0.517738 16.5327 0.0921066 15.984 0.0195097C15.2959 -0.0715129 14.5309 0.163966 13.9708 0.559012C10.5156 2.99635 7.81036 6.21899 5.86203 9.90891C4.98055 8.83396 3.86543 7.97827 2.5421 7.29615C1.83051 6.92912 -0.805093 8.01107 0.243325 8.55131C2.20492 9.5625 3.64248 11.0653 4.45284 13.1268Z" fill="#34C759"/>
<path d="M22.335 48.9924L22.3351 48.9925C22.7244 50.3676 23.9822 51.3206 25.4128 51.3206H39.2254C40.9919 51.3206 42.4235 49.8879 42.4235 48.1225C42.4235 46.3556 40.9918 44.9248 39.2254 44.9248L27.8314 44.9237L25.5369 36.8112C25.5369 36.8112 25.5369 36.8112 25.5369 36.8112C25.0563 35.111 23.289 34.1232 21.5889 34.6037C19.8899 35.0838 18.9009 36.8519 19.3822 38.5514C19.3822 38.5514 19.3822 38.5514 19.3822 38.5515L22.335 48.9924Z" fill="#34C759" stroke="white" stroke-width="0.5"/>
<path d="M16.3177 51.6846C16.3177 48.6318 13.8428 46.1569 10.79 46.1569C9.5968 46.1569 8.49458 46.5387 7.59135 47.1817L7.2151 41.3714C7.11634 39.8487 5.80149 38.6934 4.27916 38.7926C2.75537 38.8909 1.60082 40.2058 1.69921 41.7285L3.44559 68.6859C3.53919 70.1415 4.74349 71.271 6.2028 71.271H14.8455L15.2903 75.7536C6.57315 76.1837 4.0868 79.8397 3.93682 80.147L3.78204 80.4075V82.06C2.57811 82.4462 1.70584 83.5738 1.70584 84.9063C1.70584 86.5573 3.04465 87.8953 4.69558 87.8953C6.34689 87.8953 7.68459 86.5573 7.68459 84.9063C7.68459 83.7208 6.99326 82.6997 5.99275 82.2158V81.0874C6.58679 80.4285 8.91431 78.2834 15.5092 77.9643L15.9194 82.0957C14.767 82.5106 13.9419 83.6106 13.9419 84.906C13.9419 86.5569 15.28 87.895 16.9309 87.895C18.5819 87.895 19.9207 86.5569 19.9207 84.906C19.9207 83.7533 19.2677 82.7546 18.3117 82.256L18.7377 77.9621C22.5983 78.1452 25.0025 78.9685 26.4426 79.7394C27.2592 80.1769 27.7707 80.5988 28.0692 80.8918C28.1437 80.9647 28.2052 81.03 28.2542 81.0852V82.1642C27.1962 82.6245 26.4559 83.6785 26.4559 84.906C26.4559 86.5569 27.7939 87.895 29.4449 87.895C31.0965 87.895 32.4346 86.5569 32.4346 84.906C32.4346 83.6136 31.6132 82.5162 30.4649 82.0986V80.4072L30.3101 80.1466C30.1613 79.8393 27.6745 76.1833 18.9566 75.7532L19.4014 71.2706H27.9439C29.4696 71.2706 30.7074 70.0328 30.7074 68.5072C30.7074 66.9804 29.4696 65.7437 27.9439 65.7437L8.7916 65.743L8.19719 56.5659C8.97033 56.9772 9.85144 57.2119 10.7882 57.2119C13.8428 57.2123 16.3177 54.7377 16.3177 51.6846Z" fill="#4F4F4F"/>
</svg>
